<svg viewBox="0 0 100 100" xmlns="http://www.w3.org/2000/svg">
  <!-- Rota Fácil Icon - Fundo Transparente -->
  <title>Rota Fácil Icon</title>
  <defs>
    <linearGradient id="greenGrad" x1="0%" y1="0%" x2="100%" y2="100%">
      <stop offset="0%" style="stop-color:#7CB342;stop-opacity:1" />
      <stop offset="100%" style="stop-color:#4CAF50;stop-opacity:1" />
    </linearGradient>
    
    <linearGradient id="orangeGrad" x1="0%" y1="0%" x2="100%" y2="100%">
      <stop offset="0%" style="stop-color:#FF9800;stop-opacity:1" />
      <stop offset="100%" style="stop-color:#F57C00;stop-opacity:1" />
    </linearGradient>
    
    <linearGradient id="blueGrad" x1="0%" y1="0%" x2="100%" y2="100%">
      <stop offset="0%" style="stop-color:#2196F3;stop-opacity:1" />
      <stop offset="100%" style="stop-color:#1976D2;stop-opacity:1" />
    </linearGradient>
  </defs>
  
  <g transform="translate(50, 50)">
    <!-- Pin simplificado -->
    <path d="M -25 -15 
             A 25 25 0 0 1 0 -40
             A 25 25 0 0 1 25 -15
             L 25 5
             A 25 25 0 0 1 12 20
             L 0 30
             L -12 20
             A 25 25 0 0 1 -25 5
             Z" 
          fill="url(#greenGrad)"/>
    
    <!-- Parte laranja -->
    <path d="M 0 -40
             A 25 25 0 0 1 25 -15
             L 25 5
             A 25 25 0 0 1 12 20
             L 0 30
             L 0 -40
             Z" 
          fill="url(#orangeGrad)" 
          opacity="0.9"/>
    
    <!-- Detalhe azul -->
    <path d="M -12 20 L 0 30 L 12 20 A 25 25 0 0 1 -12 20 Z" 
          fill="url(#blueGrad)"/>
    
    <!-- Círculo branco -->
    <circle cx="0" cy="-15" r="12" fill="white"/>
    
    <!-- Check mark -->
    <path d="M -5 -17 L -2 -14 L 5 -22" 
          stroke="url(#orangeGrad)" 
          stroke-width="2.5" 
          stroke-linecap="round" 
          fill="none"/>
  </g>
</svg>
